# xmcd
#
# Track frame offsets:
# 150
# 17488
# 31271
# 48137
# 60058
# 71223
# 88444
# 98494
# 111914
# 128507
#
# Disc length: 1956 seconds
#
#
# Revision: 0
# Processed by: cddbd v1.5PL3 Copyright (c) Steve Scherf et al.
# Submitted via: FreeRIP 2.53 
#
DISCID=7407a20a
DTITLE=Price, Ray - Good Old Country
DYEAR=1900
DGENRE=Country
TTITLE0=You're The Best Thing That Ever Happened To Me
TTITLE1=City Lights
TTITLE2=I Won't Mention It Again
TTITLE3=My Shoes Keep Walking Back To You
TTITLE4=Crazy Arms
TTITLE5=She's Got To Be A Saint
TTITLE6=Make The World Go Away
TTITLE7=Heartaches By The Number
TTITLE8=For The Good Times
TTITLE9=Night Life
EXTD=
EXTT0=
EXTT1=
EXTT2=
EXTT3=
EXTT4=
EXTT5=
EXTT6=
EXTT7=
EXTT8=
EXTT9=
PLAYORDER=
